<?xml version="1.0" standalone="no"?>
<!DOCTYPE svg PUBLIC "-//W3C//DTD SVG 20010904//EN"
 "http://www.w3.org/TR/2001/REC-SVG-20010904/DTD/svg10.dtd">
<svg version="1.0" xmlns="http://www.w3.org/2000/svg"
 width="32.000000pt" height="32.000000pt" viewBox="0 0 64.000000 64.000000"
 preserveAspectRatio="xMidYMid meet">

<g transform="translate(0.000000,64.000000) scale(0.100000,-0.100000)"
fill="#FFF" stroke="none">
<path d="M194 615 c-4 -9 -4 -33 -1 -53 l6 -37 -17 35 c-13 26 -24 35 -42 35
-32 0 -37 -27 -12 -63 18 -25 19 -30 5 -56 -11 -20 -13 -43 -9 -74 7 -51 -9
-71 -56 -72 -31 0 -35 -15 -13 -47 13 -18 13 -22 -1 -34 -8 -7 -22 -25 -30
-40 -60 -117 82 -247 194 -179 29 18 50 20 187 20 126 0 156 3 169 16 13 12
16 38 16 119 0 96 1 103 21 108 15 4 20 12 17 29 -2 18 -10 24 -35 26 -20 2
-33 9 -33 17 0 7 -11 26 -24 42 -21 25 -22 31 -10 48 8 10 14 25 14 32 0 19
-70 16 -92 -4 -17 -15 -18 -15 -18 5 0 11 10 28 22 36 30 21 15 33 -17 12 -20
-13 -25 -25 -25 -56 0 -35 -3 -40 -23 -40 -12 0 -33 -7 -45 -16 -21 -14 -22
-14 -22 8 -1 13 -7 34 -14 48 -13 22 -12 28 6 52 25 36 20 63 -12 63 -18 0
-29 -9 -41 -33 l-15 -34 0 49 c1 42 -2 48 -22 51 -13 2 -25 -3 -28 -13z m36
-35 c0 -16 -4 -30 -10 -30 -5 0 -10 14 -10 30 0 17 5 30 10 30 6 0 10 -13 10
-30z m-70 -26 c15 -38 12 -42 -10 -14 -22 28 -25 40 -10 40 6 0 15 -12 20 -26z
m150 19 c-1 -10 -39 -60 -40 -51 0 17 21 58 30 58 5 0 10 -3 10 -7z m-35 -88
c26 -25 29 -37 19 -97 l-7 -38 -56 0 c-38 0 -51 3 -41 10 21 13 5 24 -18 11
-17 -9 -20 -7 -26 21 -10 52 -7 68 19 93 15 16 36 25 55 25 19 0 40 -9 55 -25z
m229 -26 c-13 -12 -31 -19 -45 -17 -22 3 -22 4 -5 21 10 9 29 17 44 17 l26 0
-20 -21z m-99 -48 c3 -5 -5 -11 -17 -13 l-23 -3 23 -14 c13 -7 35 -10 48 -7
26 7 33 26 9 26 -8 0 -15 5 -15 11 0 6 15 9 37 7 25 -2 42 -11 56 -30 12 -15
18 -30 15 -33 -3 -3 -56 -4 -118 -3 l-113 3 27 33 c27 31 59 42 71 23z m-265
-91 c0 -5 -2 -10 -4 -10 -3 0 -8 5 -11 10 -3 6 -1 10 4 10 6 0 11 -4 11 -10z
m470 0 c0 -5 -9 -10 -20 -10 -17 0 -20 -7 -20 -40 l0 -40 -150 0 c-138 0 -153
2 -180 21 -18 14 -38 20 -54 17 -18 -4 -26 -1 -26 8 0 11 37 14 195 14 123 0
195 4 195 10 0 6 -72 10 -195 10 -123 0 -195 4 -195 10 0 6 82 10 225 10 143
0 225 -4 225 -10z m-485 -30 c18 -19 17 -20 -7 -20 -14 0 -33 9 -43 20 -18 19
-17 20 7 20 14 0 33 -9 43 -20z m15 -55 c0 -9 -6 -12 -15 -9 -8 4 -15 1 -15
-4 0 -6 9 -14 20 -17 24 -8 60 2 60 17 0 5 -7 7 -16 4 -10 -4 -14 -1 -12 6 8
25 53 20 78 -7 20 -21 25 -37 25 -76 0 -42 -5 -53 -33 -81 -28 -28 -39 -33
-82 -33 -43 0 -54 5 -82 33 -28 28 -33 39 -33 81 0 38 5 55 24 75 27 29 81 36
81 11z m430 -55 l0 -30 -140 0 c-114 0 -140 3 -140 14 0 8 -3 21 -6 30 -5 14
11 16 140 16 l146 0 0 -30z m-2 -77 l-3 -28 -147 -3 c-82 -1 -148 0 -148 2 0
3 5 17 12 31 l11 25 139 0 139 0 -3 -27z"/>
<path d="M250 460 c0 -5 5 -10 10 -10 6 0 10 5 10 10 0 6 -4 10 -10 10 -5 0
-10 -4 -10 -10z"/>
<path d="M250 420 c0 -5 5 -10 10 -10 6 0 10 5 10 10 0 6 -4 10 -10 10 -5 0
-10 -4 -10 -10z"/>
<path d="M250 380 c0 -5 5 -10 10 -10 6 0 10 5 10 10 0 6 -4 10 -10 10 -5 0
-10 -4 -10 -10z"/>
<path d="M530 260 c0 -5 5 -10 10 -10 6 0 10 5 10 10 0 6 -4 10 -10 10 -5 0
-10 -4 -10 -10z"/>
<path d="M50 140 c0 -36 53 -90 90 -90 21 0 9 16 -21 27 -19 8 -34 23 -42 42
-11 29 -27 42 -27 21z"/>
<path d="M530 180 c0 -5 5 -10 10 -10 6 0 10 5 10 10 0 6 -4 10 -10 10 -5 0
-10 -4 -10 -10z"/>
<path d="M530 100 c0 -5 5 -10 10 -10 6 0 10 5 10 10 0 6 -4 10 -10 10 -5 0
-10 -4 -10 -10z"/>
</g>
</svg>
